<svg xmlns="http://www.w3.org/2000/svg" xmlns:xlink="http://www.w3.org/1999/xlink" viewBox="0 0 277.99 428.24"><defs><filter id="luminosity-noclip" x="219.59" y="-8417" width="389.16" height="32766" filterUnits="userSpaceOnUse" color-interpolation-filters="sRGB"><feFlood flood-color="#fff" result="bg"/><feBlend in="SourceGraphic" in2="bg"/></filter><mask id="mask" x="219.59" y="-8417" width="389.16" height="32766" maskUnits="userSpaceOnUse"><g style="filter:url(#luminosity-noclip)"/></mask><linearGradient id="linear-gradient" x1="455.69" y1="375.43" x2="450.82" y2="366.82" gradientUnits="userSpaceOnUse"><stop offset="0" stop-color="#fff"/><stop offset="1"/></linearGradient><linearGradient id="linear-gradient-2" x1="351.8" y1="408.8" x2="357.75" y2="398.57" xlink:href="#linear-gradient"/><linearGradient id="linear-gradient-3" x1="775.32" y1="430.7" x2="287.21" y2="373.47" gradientUnits="userSpaceOnUse"><stop offset="0" stop-color="#4f24ff"/><stop offset="1" stop-color="#13ffe2"/></linearGradient><linearGradient id="linear-gradient-4" x1="383.07" y1="353.97" x2="369.34" y2="353.97" gradientUnits="userSpaceOnUse"><stop offset="0" stop-color="#c3acff"/><stop offset="1" stop-color="#dccfff"/></linearGradient><filter id="luminosity-noclip-3" x="219.59" y="195.85" width="389.16" height="222.57" filterUnits="userSpaceOnUse" color-interpolation-filters="sRGB"><feFlood flood-color="#fff" result="bg"/><feBlend in="SourceGraphic" in2="bg"/></filter><mask id="mask-3" x="-7.77" y="186.39" width="389.16" height="222.57" maskUnits="userSpaceOnUse"><g style="filter:url(#luminosity-noclip-3)"><g transform="translate(-227.36 -9.46)"><g style="mask:url(#mask)"><path d="M602.92,269.56c-7.43-7.53-7.67-.78-6.21,7.38L460.49,198a20,20,0,0,0-19,.58L241.56,313.72c-8.09-3.71-15.53-4.92-18.87.52-6.05,9.88-2,15.25,1.44,18.57a12.07,12.07,0,0,0,3.12,2.43l.17.09,139.89,81a19.68,19.68,0,0,0,18.72-.6l214.8-123.87S617.16,284,602.92,269.56Z" style="mix-blend-mode:multiply;fill:url(#linear-gradient)"/></g></g></g></mask><linearGradient id="linear-gradient-5" x1="407.62" y1="402.89" x2="404.01" y2="396.51" gradientUnits="userSpaceOnUse"><stop offset="0" stop-color="#3300bf"/><stop offset="1" stop-color="#c0abff"/></linearGradient><linearGradient id="linear-gradient-6" x1="344.65" y1="403.97" x2="347.73" y2="398.67" xlink:href="#linear-gradient-5"/><linearGradient id="linear-gradient-7" x1="670.2" y1="610.43" x2="372.19" y2="337.16" gradientTransform="translate(3.32 -5.28) rotate(0.81)" gradientUnits="userSpaceOnUse"><stop offset="0" stop-color="#9c74ff"/><stop offset="1" stop-color="#fff6ff"/></linearGradient><linearGradient id="linear-gradient-8" x1="294.84" y1="361.4" x2="786.68" y2="248.77" gradientUnits="userSpaceOnUse"><stop offset="0" stop-color="#0e9cff"/><stop offset="1" stop-color="#fff6ff"/></linearGradient><linearGradient id="linear-gradient-9" x1="376.82" y1="-110.01" x2="376.82" y2="352.17" xlink:href="#linear-gradient-3"/><linearGradient id="linear-gradient-10" x1="342.79" y1="264.74" x2="339.04" y2="258.36" gradientUnits="userSpaceOnUse"><stop offset="0" stop-color="#8845ff"/><stop offset="1" stop-color="#d3c2ff"/></linearGradient><linearGradient id="linear-gradient-11" x1="314.69" y1="319.2" x2="319.1" y2="276.01" gradientUnits="userSpaceOnUse"><stop offset="0" stop-color="#3124ff"/><stop offset="1" stop-color="#00efe2"/></linearGradient><linearGradient id="linear-gradient-12" x1="322.24" y1="305.02" x2="325.42" y2="309.84" gradientUnits="userSpaceOnUse"><stop offset="0" stop-color="#8942ff"/><stop offset="1" stop-color="#d3c2ff"/></linearGradient><linearGradient id="linear-gradient-13" x1="372.13" y1="281.51" x2="368.38" y2="275.13" xlink:href="#linear-gradient-10"/><linearGradient id="linear-gradient-14" x1="344.69" y1="332.82" x2="348.21" y2="292.27" xlink:href="#linear-gradient-11"/><linearGradient id="linear-gradient-15" x1="351.58" y1="321.79" x2="354.76" y2="326.61" xlink:href="#linear-gradient-12"/><linearGradient id="linear-gradient-16" x1="401.47" y1="298.65" x2="397.72" y2="292.26" xlink:href="#linear-gradient-10"/><linearGradient id="linear-gradient-17" x1="374.29" y1="350.56" x2="377.37" y2="308.42" xlink:href="#linear-gradient-11"/><linearGradient id="linear-gradient-18" x1="380.92" y1="338.92" x2="384.1" y2="343.75" xlink:href="#linear-gradient-12"/><linearGradient id="linear-gradient-19" x1="343.44" y1="197.36" x2="339.69" y2="190.98" xlink:href="#linear-gradient-10"/><linearGradient id="linear-gradient-20" x1="315.34" y1="251.82" x2="319.75" y2="208.63" xlink:href="#linear-gradient-11"/><linearGradient id="linear-gradient-21" x1="322.89" y1="237.64" x2="326.07" y2="242.47" xlink:href="#linear-gradient-12"/><linearGradient id="linear-gradient-22" x1="372.78" y1="214.14" x2="369.03" y2="207.75" xlink:href="#linear-gradient-10"/><linearGradient id="linear-gradient-23" x1="345.33" y1="265.44" x2="348.86" y2="224.89" xlink:href="#linear-gradient-11"/><linearGradient id="linear-gradient-24" x1="352.23" y1="254.41" x2="355.41" y2="259.24" xlink:href="#linear-gradient-12"/><linearGradient id="linear-gradient-25" x1="402.12" y1="231.27" x2="398.37" y2="224.88" xlink:href="#linear-gradient-10"/><linearGradient id="linear-gradient-26" x1="374.94" y1="283.18" x2="378.01" y2="241.05" xlink:href="#linear-gradient-11"/><linearGradient id="linear-gradient-27" x1="381.57" y1="271.54" x2="384.75" y2="276.37" xlink:href="#linear-gradient-12"/><linearGradient id="linear-gradient-28" x1="383.53" y1="355.76" x2="368.47" y2="355.76" gradientUnits="userSpaceOnUse"><stop offset="0" stop-color="#3bc3ff"/><stop offset="1" stop-color="#a7ffe2"/></linearGradient><linearGradient id="linear-gradient-29" x1="2818.78" y1="252.42" x2="2818.78" y2="223.09" gradientTransform="matrix(-1, 0, 0, 1, 2848.17, -9.46)" gradientUnits="userSpaceOnUse"><stop offset="0" stop-color="#4fa4ff"/><stop offset="1" stop-color="#1339e2"/></linearGradient><linearGradient id="linear-gradient-30" x1="2818.78" y1="247.7" x2="2818.78" y2="218.37" gradientTransform="matrix(-1, 0, 0, 1, 2848.17, -9.46)" gradientUnits="userSpaceOnUse"><stop offset="0" stop-color="#4f81ff"/><stop offset="1" stop-color="#1339e2"/></linearGradient><linearGradient id="linear-gradient-31" x1="2821.35" y1="215.06" x2="2789.59" y2="233.93" gradientTransform="matrix(-1, 0, 0, 1, 2848.17, -9.46)" gradientUnits="userSpaceOnUse"><stop offset="0" stop-color="#4f24ff"/><stop offset="1" stop-color="#00ffe2"/></linearGradient><linearGradient id="linear-gradient-32" x1="2846.95" y1="244.13" x2="2817.88" y2="215.7" xlink:href="#linear-gradient-31"/><linearGradient id="linear-gradient-33" x1="2823.78" y1="268.45" x2="2795.72" y2="245.75" xlink:href="#linear-gradient-31"/><linearGradient id="linear-gradient-34" x1="2840.45" y1="265.41" x2="2823.74" y2="250.11" xlink:href="#linear-gradient-31"/><linearGradient id="linear-gradient-35" x1="2818.78" y1="252.34" x2="2818.78" y2="223.01" xlink:href="#linear-gradient-29"/><linearGradient id="linear-gradient-36" x1="2818.78" y1="247.62" x2="2818.78" y2="218.29" xlink:href="#linear-gradient-30"/><linearGradient id="linear-gradient-37" x1="2821.35" y1="214.98" x2="2789.59" y2="233.85" xlink:href="#linear-gradient-31"/><linearGradient id="linear-gradient-38" x1="2846.95" y1="244.05" x2="2817.88" y2="215.61" xlink:href="#linear-gradient-31"/><linearGradient id="linear-gradient-39" x1="2823.78" y1="268.36" x2="2795.72" y2="245.66" xlink:href="#linear-gradient-31"/><linearGradient id="linear-gradient-40" x1="2840.45" y1="265.33" x2="2823.74" y2="250.03" xlink:href="#linear-gradient-31"/><linearGradient id="linear-gradient-41" x1="2806.05" y1="261.93" x2="2806.05" y2="232.6" xlink:href="#linear-gradient-29"/><linearGradient id="linear-gradient-42" x1="2806.05" y1="257.21" x2="2806.05" y2="227.88" xlink:href="#linear-gradient-30"/><linearGradient id="linear-gradient-43" x1="2808.61" y1="224.57" x2="2776.86" y2="243.44" xlink:href="#linear-gradient-31"/><linearGradient id="linear-gradient-44" x1="2834.22" y1="253.65" x2="2805.14" y2="225.21" xlink:href="#linear-gradient-31"/><linearGradient id="linear-gradient-45" x1="2811.04" y1="277.96" x2="2782.98" y2="255.26" xlink:href="#linear-gradient-31"/><linearGradient id="linear-gradient-46" x1="2827.71" y1="274.92" x2="2811" y2="259.62" xlink:href="#linear-gradient-31"/><linearGradient id="linear-gradient-47" x1="2806.05" y1="261.85" x2="2806.05" y2="232.52" xlink:href="#linear-gradient-29"/><linearGradient id="linear-gradient-48" x1="2806.05" y1="257.13" x2="2806.05" y2="227.8" xlink:href="#linear-gradient-30"/><linearGradient id="linear-gradient-49" x1="2808.61" y1="224.49" x2="2776.86" y2="243.36" xlink:href="#linear-gradient-31"/><linearGradient id="linear-gradient-50" x1="2834.22" y1="253.56" x2="2805.14" y2="225.13" xlink:href="#linear-gradient-31"/><linearGradient id="linear-gradient-51" x1="2811.04" y1="277.88" x2="2782.98" y2="255.18" xlink:href="#linear-gradient-31"/><linearGradient id="linear-gradient-52" x1="2827.71" y1="274.84" x2="2811" y2="259.54" xlink:href="#linear-gradient-31"/><linearGradient id="linear-gradient-53" x1="2586.91" y1="310.94" x2="2586.91" y2="286.92" xlink:href="#linear-gradient-29"/><linearGradient id="linear-gradient-54" x1="2586.91" y1="307.08" x2="2586.91" y2="283.05" xlink:href="#linear-gradient-30"/><linearGradient id="linear-gradient-55" x1="2589.01" y1="280.34" x2="2563" y2="295.8" xlink:href="#linear-gradient-31"/><linearGradient id="linear-gradient-56" x1="2609.98" y1="304.16" x2="2586.17" y2="280.86" xlink:href="#linear-gradient-31"/><linearGradient id="linear-gradient-57" x1="2591" y1="324.07" x2="2568.02" y2="305.48" xlink:href="#linear-gradient-31"/><linearGradient id="linear-gradient-58" x1="2604.65" y1="321.58" x2="2590.97" y2="309.05" xlink:href="#linear-gradient-31"/><linearGradient id="linear-gradient-59" x1="2586.91" y1="311.15" x2="2586.91" y2="287.12" xlink:href="#linear-gradient-29"/><linearGradient id="linear-gradient-60" x1="2586.91" y1="307.28" x2="2586.91" y2="283.26" xlink:href="#linear-gradient-30"/><linearGradient id="linear-gradient-61" x1="2589.01" y1="280.54" x2="2563" y2="296" xlink:href="#linear-gradient-31"/><linearGradient id="linear-gradient-62" x1="2609.98" y1="304.36" x2="2586.17" y2="281.07" xlink:href="#linear-gradient-31"/><linearGradient id="linear-gradient-63" x1="2591" y1="324.27" x2="2568.02" y2="305.68" xlink:href="#linear-gradient-31"/><linearGradient id="linear-gradient-64" x1="2604.65" y1="321.79" x2="2590.97" y2="309.25" xlink:href="#linear-gradient-31"/><linearGradient id="linear-gradient-65" x1="2598.58" y1="318.53" x2="2598.58" y2="294.5" xlink:href="#linear-gradient-29"/><linearGradient id="linear-gradient-66" x1="2598.58" y1="314.66" x2="2598.58" y2="290.64" xlink:href="#linear-gradient-30"/><linearGradient id="linear-gradient-67" x1="2600.68" y1="287.93" x2="2574.67" y2="303.39" xlink:href="#linear-gradient-31"/><linearGradient id="linear-gradient-68" x1="2621.65" y1="311.74" x2="2597.84" y2="288.45" xlink:href="#linear-gradient-31"/><linearGradient id="linear-gradient-69" x1="2602.67" y1="331.66" x2="2579.69" y2="313.06" xlink:href="#linear-gradient-31"/><linearGradient id="linear-gradient-70" x1="2616.32" y1="329.17" x2="2602.64" y2="316.64" xlink:href="#linear-gradient-31"/><linearGradient id="linear-gradient-71" x1="2598.58" y1="318.73" x2="2598.58" y2="294.71" xlink:href="#linear-gradient-29"/><linearGradient id="linear-gradient-72" x1="2598.58" y1="314.87" x2="2598.58" y2="290.84" xlink:href="#linear-gradient-30"/><linearGradient id="linear-gradient-73" x1="2600.68" y1="288.13" x2="2574.67" y2="303.59" xlink:href="#linear-gradient-31"/><linearGradient id="linear-gradient-74" x1="2621.65" y1="311.95" x2="2597.84" y2="288.65" xlink:href="#linear-gradient-31"/><linearGradient id="linear-gradient-75" x1="2602.67" y1="331.86" x2="2579.69" y2="313.27" xlink:href="#linear-gradient-31"/><linearGradient id="linear-gradient-76" x1="2616.32" y1="329.37" x2="2602.64" y2="316.84" xlink:href="#linear-gradient-31"/><linearGradient id="linear-gradient-77" x1="2694.81" y1="165.66" x2="2694.81" y2="124.44" xlink:href="#linear-gradient-29"/><linearGradient id="linear-gradient-78" x1="2694.81" y1="159.03" x2="2694.81" y2="117.81" xlink:href="#linear-gradient-30"/><linearGradient id="linear-gradient-79" x1="2698.42" y1="113.16" x2="2653.8" y2="139.68" xlink:href="#linear-gradient-31"/><linearGradient id="linear-gradient-80" x1="2734.4" y1="154.02" x2="2693.54" y2="114.06" xlink:href="#linear-gradient-31"/><linearGradient id="linear-gradient-81" x1="2701.83" y1="188.18" x2="2662.4" y2="156.29" xlink:href="#linear-gradient-31"/><linearGradient id="linear-gradient-82" x1="2725.25" y1="183.92" x2="2701.78" y2="162.41" xlink:href="#linear-gradient-31"/><linearGradient id="linear-gradient-83" x1="2694.81" y1="165.61" x2="2694.81" y2="124.39" xlink:href="#linear-gradient-29"/><linearGradient id="linear-gradient-84" x1="2694.81" y1="158.98" x2="2694.81" y2="117.76" xlink:href="#linear-gradient-30"/><linearGradient id="linear-gradient-85" x1="2698.42" y1="113.11" x2="2653.8" y2="139.64" xlink:href="#linear-gradient-31"/><linearGradient id="linear-gradient-86" x1="2734.4" y1="153.97" x2="2693.54" y2="114.01" xlink:href="#linear-gradient-31"/><linearGradient id="linear-gradient-87" x1="2701.83" y1="188.13" x2="2662.4" y2="156.24" xlink:href="#linear-gradient-31"/><linearGradient id="linear-gradient-88" x1="2725.25" y1="183.87" x2="2701.78" y2="162.36" xlink:href="#linear-gradient-31"/><linearGradient id="linear-gradient-89" x1="772.69" y1="91.58" x2="153.82" y2="91.58" xlink:href="#linear-gradient-3"/><linearGradient id="linear-gradient-90" x1="775.32" y1="119.74" x2="287.21" y2="62.52" xlink:href="#linear-gradient-3"/><linearGradient id="linear-gradient-91" x1="775.32" y1="109.58" x2="287.21" y2="52.36" xlink:href="#linear-gradient-3"/><linearGradient id="linear-gradient-92" x1="2654.2" y1="325.36" x2="2654.2" y2="313.87" xlink:href="#linear-gradient-29"/><linearGradient id="linear-gradient-93" x1="2654.2" y1="323.52" x2="2654.2" y2="312.02" xlink:href="#linear-gradient-30"/><linearGradient id="linear-gradient-94" x1="2655.2" y1="310.73" x2="2642.76" y2="318.12" xlink:href="#linear-gradient-31"/><linearGradient id="linear-gradient-95" x1="2665.23" y1="322.12" x2="2653.84" y2="310.98" xlink:href="#linear-gradient-31"/><linearGradient id="linear-gradient-96" x1="2656.15" y1="331.64" x2="2645.16" y2="322.75" xlink:href="#linear-gradient-31"/><linearGradient id="linear-gradient-97" x1="2662.68" y1="330.45" x2="2656.14" y2="324.46" xlink:href="#linear-gradient-31"/><linearGradient id="linear-gradient-98" x1="2654.2" y1="325.46" x2="2654.2" y2="313.97" xlink:href="#linear-gradient-29"/><linearGradient id="linear-gradient-99" x1="2654.2" y1="323.61" x2="2654.2" y2="312.12" xlink:href="#linear-gradient-30"/><linearGradient id="linear-gradient-100" x1="2655.2" y1="310.83" x2="2642.76" y2="318.22" xlink:href="#linear-gradient-31"/><linearGradient id="linear-gradient-101" x1="2665.23" y1="322.22" x2="2653.84" y2="311.07" xlink:href="#linear-gradient-31"/><linearGradient id="linear-gradient-102" x1="2656.15" y1="331.74" x2="2645.16" y2="322.85" xlink:href="#linear-gradient-31"/><linearGradient id="linear-gradient-103" x1="2662.68" y1="330.55" x2="2656.14" y2="324.56" xlink:href="#linear-gradient-31"/></defs><g style="isolation:isolate"><g id="content"><g id="_7" data-name="7"><g style="mix-blend-mode:lighten"><path d="M377.47,437.7a15.13,15.13,0,0,1-6.74-1.59L291.15,390c-2.59-1.54-4-3.64-4.1-5.9A6.06,6.06,0,0,1,290,379h0l81.26-46.31a15.23,15.23,0,0,1,14.53-.45l79.59,46.16a7.7,7.7,0,0,1,3.31,6.45,5.79,5.79,0,0,1-3,4.78L385,435.66A15,15,0,0,1,377.47,437.7Zm-87-57.87a5.07,5.07,0,0,0-2.44,4.26c.05,1.91,1.33,3.7,3.6,5.06l79.55,46.07a14,14,0,0,0,13.32-.44l80.65-46.06a4.77,4.77,0,0,0,2.48-4,6.63,6.63,0,0,0-2.85-5.54L385.29,333.1a14.23,14.23,0,0,0-13.55.43Z" transform="translate(-227.36 -9.46)" style="fill:url(#linear-gradient-3)"/></g><path d="M485.1,337.78s-7.22-.8-5.76,7.36l-92.19-53.49a20,20,0,0,0-19,.58l-82.52,47c-8.1-3.71-15.54-4.92-18.87.53-6.05,9.87-2,15.24,1.43,18.56a12.3,12.3,0,0,0,3.13,2.43l.17.1,95.86,55.53a19.68,19.68,0,0,0,18.72-.6l97.43-55.67S497.66,351.44,485.1,337.78Z" transform="translate(-227.36 -9.46)" style="fill:url(#linear-gradient-4)"/><g style="mask:url(#mask-3)"><path d="M485.1,337.78s-7.22-.8-5.76,7.36l-92.19-53.49a20,20,0,0,0-19,.58l-82.52,47c-8.1-3.71-15.54-4.92-18.87.53-6.05,9.87-2,15.24,1.43,18.56a12.3,12.3,0,0,0,3.13,2.43l.17.1,95.86,55.53a19.68,19.68,0,0,0,18.72-.6l97.43-55.67S497.72,351.83,485.1,337.78Z" transform="translate(-227.36 -9.46)" style="opacity:0.4;mix-blend-mode:multiply;fill:url(#linear-gradient-5)"/></g><g style="mask:url(#mask-3)"><path d="M485.1,337.78s-7.22-.8-5.76,7.36l-92.19-53.49a20,20,0,0,0-19,.58l-82.52,47c-8.1-3.71-15.54-4.92-18.87.53-6.05,9.87-2,15.24,1.43,18.56a12.3,12.3,0,0,0,3.13,2.43l.17.1,95.86,55.53a19.68,19.68,0,0,0,18.72-.6l97.43-55.67S497.45,351.59,485.1,337.78Z" transform="translate(-227.36 -9.46)" style="opacity:0.5;mix-blend-mode:multiply;fill:url(#linear-gradient-6)"/></g><path d="M269.76,336.62l98.24-56a20,20,0,0,1,19-.58l95.88,55.63c4.95,3.61,5.91,10.83.43,14l-97.42,55.68a19.73,19.73,0,0,1-18.73.59L271.34,350.4C264.47,346.31,264.86,339.89,269.76,336.62Z" transform="translate(-227.36 -9.46)" style="fill:url(#linear-gradient-7)"/><path d="M277.65,337.2l91.9-52.37a16.71,16.71,0,0,1,15.9-.49l90,52.19c4.13,3,4.93,9.05.36,11.71l-91.22,52.09a16.45,16.45,0,0,1-15.63.5l-90-52.12C273.23,345.29,273.56,339.94,277.65,337.2Z" transform="translate(-227.36 -9.46)" style="fill:url(#linear-gradient-8)"/></g><g id="_6" data-name="6"><path d="M467.13,317.31,467,93a5.3,5.3,0,0,1-2.56,3.3l-80.65,46.06a14.54,14.54,0,0,1-13.82.44L290.4,96.7a7.31,7.31,0,0,1-3.75-4.65l0,223.73c-.43,2.2.66,4.67,3.75,6.5l79.55,46.08a14.56,14.56,0,0,0,13.83-.44l80.65-46.06a5.25,5.25,0,0,0,2.73-4.55Z" transform="translate(-227.36 -9.46)" style="opacity:0.4;mix-blend-mode:lighten;fill:url(#linear-gradient-9)"/><g id="_10" data-name="10"><path d="M378.52,235.38l-13.41-7.78a2.59,2.59,0,0,0-2.5-.25h0l0,0-54.37,31.32,18.56,70.61,54.09-31.17c.91-.43,1.5-1.58,1.5-3.25l.1-51.95C382.46,240,380.7,236.64,378.52,235.38Z" transform="translate(-227.36 -9.46)" style="fill:url(#linear-gradient-10)"/><path d="M324.24,329.06l-13.41-7.78c-2.18-1.26-3.94-4.64-3.93-7.54l.09-51.95c0-2.91,1.77-4.24,3.95-3l13.41,7.78c2.18,1.26,3.94,4.64,3.93,7.54l-.09,51.95C328.19,329,326.42,330.32,324.24,329.06Z" transform="translate(-227.36 -9.46)" style="fill:#ab95f9"/><path d="M321.55,322.92l-8.59-5a6,6,0,0,1-2.51-4.83l0-46.42c0-1.86,1.13-2.71,2.52-1.9l8.59,5a6.07,6.07,0,0,1,2.52,4.83l0,46.42C324.07,322.87,322.94,323.73,321.55,322.92Z" transform="translate(-227.36 -9.46)" style="fill:url(#linear-gradient-11)"/><path d="M317.15,315.76a6,6,0,0,1-2.52-4.83l0-45.18L313,264.8c-1.39-.81-2.53,0-2.53,1.9l0,46.42A6,6,0,0,0,313,318l8.58,5c1.39.81,2.53-.05,2.53-1.91v-1.24Z" transform="translate(-227.36 -9.46)" style="fill:url(#linear-gradient-12)"/><path d="M407.86,252.15l-13.41-7.77a2.57,2.57,0,0,0-2.5-.26h0l0,0-54.37,31.33,18.56,70.6L410.2,314.9c.91-.43,1.5-1.58,1.5-3.25l.1-51.95C411.8,256.79,410,253.41,407.86,252.15Z" transform="translate(-227.36 -9.46)" style="fill:url(#linear-gradient-13)"/><path d="M353.58,345.83l-13.41-7.78c-2.18-1.26-3.94-4.64-3.93-7.54l.09-51.95c0-2.91,1.77-4.24,3.95-3l13.41,7.78c2.18,1.26,3.94,4.64,3.93,7.54l-.09,52C357.53,345.76,355.76,347.09,353.58,345.83Z" transform="translate(-227.36 -9.46)" style="fill:#ab95f9"/><path d="M350.89,339.69l-8.59-5a6,6,0,0,1-2.51-4.83l0-46.42c0-1.86,1.13-2.71,2.52-1.9l8.59,5a6.07,6.07,0,0,1,2.52,4.83l0,46.42C353.41,339.64,352.28,340.5,350.89,339.69Z" transform="translate(-227.36 -9.46)" style="fill:url(#linear-gradient-14)"/><path d="M346.49,332.53A6,6,0,0,1,344,327.7l0-45.18-1.65-.95c-1.4-.81-2.53,0-2.53,1.9l0,46.42a6,6,0,0,0,2.52,4.83l8.58,5c1.39.81,2.53-.05,2.53-1.91v-1.24Z" transform="translate(-227.36 -9.46)" style="fill:url(#linear-gradient-15)"/><path d="M437.2,269.28l-13.41-7.77a2.57,2.57,0,0,0-2.5-.26h0l0,0L366.89,292.6l18.56,70.6L439.54,332c.91-.43,1.5-1.58,1.5-3.25l.1-51.95C441.14,273.92,439.38,270.55,437.2,269.28Z" transform="translate(-227.36 -9.46)" style="fill:url(#linear-gradient-16)"/><path d="M382.92,363l-13.41-7.78c-2.18-1.26-3.94-4.64-3.93-7.54l.09-51.95c0-2.91,1.77-4.24,3.95-3L383,300.49c2.18,1.26,3.94,4.64,3.93,7.55L386.87,360C386.87,362.89,385.1,364.22,382.92,363Z" transform="translate(-227.36 -9.46)" style="fill:#ab95f9"/><path d="M380.23,356.82l-8.59-5a6,6,0,0,1-2.51-4.83l0-46.42c0-1.86,1.13-2.71,2.52-1.9l8.59,5a6.07,6.07,0,0,1,2.52,4.83l0,46.43C382.75,356.78,381.62,357.63,380.23,356.82Z" transform="translate(-227.36 -9.46)" style="fill:url(#linear-gradient-17)"/><path d="M375.83,349.66a6,6,0,0,1-2.52-4.83l0-45.18-1.65-.95c-1.4-.81-2.53,0-2.53,1.9l0,46.42a6,6,0,0,0,2.52,4.83l8.58,5c1.39.81,2.53,0,2.53-1.9v-1.25Z" transform="translate(-227.36 -9.46)" style="fill:url(#linear-gradient-18)"/></g><g id="_10-2" data-name="10"><path d="M379.17,168l-13.41-7.77a2.57,2.57,0,0,0-2.5-.26h0l0,0-54.37,31.33,18.56,70.6,54.09-31.17c.91-.43,1.5-1.58,1.5-3.25l.1-51.95C383.11,172.64,381.35,169.26,379.17,168Z" transform="translate(-227.36 -9.46)" style="fill:url(#linear-gradient-19)"/><path d="M324.89,261.68l-13.41-7.78c-2.18-1.26-3.94-4.64-3.94-7.54l.1-52c0-2.91,1.77-4.24,3.95-3L325,199.21c2.18,1.26,3.94,4.64,3.93,7.54l-.09,51.95C328.84,261.61,327.07,262.94,324.89,261.68Z" transform="translate(-227.36 -9.46)" style="fill:#ab95f9"/><path d="M322.2,255.54l-8.59-5a6.07,6.07,0,0,1-2.52-4.83l0-46.42c0-1.86,1.14-2.71,2.53-1.9l8.59,5a6,6,0,0,1,2.51,4.83l0,46.42C324.72,255.49,323.59,256.35,322.2,255.54Z" transform="translate(-227.36 -9.46)" style="fill:url(#linear-gradient-20)"/><path d="M317.79,248.38a6,6,0,0,1-2.51-4.83l0-45.18-1.65-1c-1.4-.81-2.53,0-2.53,1.9l0,46.42a6,6,0,0,0,2.52,4.83l8.58,5c1.39.81,2.53-.05,2.53-1.9V252.4Z" transform="translate(-227.36 -9.46)" style="fill:url(#linear-gradient-21)"/><path d="M408.51,184.77,395.1,177a2.57,2.57,0,0,0-2.5-.26h0l0,0L338.2,208.09l18.56,70.6,54.09-31.17c.91-.43,1.5-1.58,1.5-3.25l.1-52C412.45,189.41,410.69,186,408.51,184.77Z" transform="translate(-227.36 -9.46)" style="fill:url(#linear-gradient-22)"/><path d="M354.23,278.45l-13.41-7.78c-2.18-1.26-3.94-4.64-3.94-7.54l.1-51.95c0-2.91,1.77-4.24,3.95-3L354.34,216c2.18,1.26,3.94,4.64,3.93,7.54l-.09,52C358.18,278.38,356.41,279.71,354.23,278.45Z" transform="translate(-227.36 -9.46)" style="fill:#ab95f9"/><path d="M351.54,272.31l-8.59-5a6.06,6.06,0,0,1-2.52-4.83l0-46.42c0-1.86,1.14-2.71,2.53-1.9l8.59,5a6,6,0,0,1,2.51,4.83l0,46.43C354.06,272.26,352.93,273.12,351.54,272.31Z" transform="translate(-227.36 -9.46)" style="fill:url(#linear-gradient-23)"/><path d="M347.13,265.15a6,6,0,0,1-2.51-4.83l0-45.18-1.65-.95c-1.4-.81-2.53,0-2.53,1.9l0,46.42a6,6,0,0,0,2.52,4.83l8.58,5c1.39.81,2.52,0,2.53-1.9v-1.25Z" transform="translate(-227.36 -9.46)" style="fill:url(#linear-gradient-24)"/><path d="M437.85,201.91l-13.41-7.78a2.57,2.57,0,0,0-2.5-.26h0l0,0-54.37,31.33,18.56,70.6,54.09-31.16c.91-.44,1.5-1.59,1.5-3.26l.09-51.95C441.79,206.55,440,203.17,437.85,201.91Z" transform="translate(-227.36 -9.46)" style="fill:url(#linear-gradient-25)"/><path d="M383.57,295.58l-13.41-7.77c-2.18-1.27-3.94-4.64-3.94-7.55l.1-51.95c0-2.9,1.77-4.24,3.95-3l13.41,7.77c2.18,1.26,3.94,4.64,3.93,7.55l-.09,52C387.51,295.51,385.75,296.84,383.57,295.58Z" transform="translate(-227.36 -9.46)" style="fill:#ab95f9"/><path d="M380.88,289.44l-8.59-5a6.07,6.07,0,0,1-2.52-4.83l0-46.43c0-1.86,1.14-2.71,2.53-1.9l8.59,5a6,6,0,0,1,2.51,4.83l0,46.42C383.4,289.4,382.27,290.25,380.88,289.44Z" transform="translate(-227.36 -9.46)" style="fill:url(#linear-gradient-26)"/><path d="M376.47,282.28a6,6,0,0,1-2.51-4.83l0-45.17-1.65-1c-1.4-.81-2.53,0-2.53,1.9l0,46.43a6,6,0,0,0,2.51,4.83l8.59,5c1.39.81,2.52,0,2.53-1.9V286.3Z" transform="translate(-227.36 -9.46)" style="fill:url(#linear-gradient-27)"/><g id="_4" data-name="4"><path d="M422.51,272.23a2.55,2.55,0,0,1-1.27,2.2h0v-9a2.49,2.49,0,0,1,.4-1.36l6.94-11a2.51,2.51,0,0,0,.4-1.36v-10.9a.64.64,0,0,1,.64-.65h0a.65.65,0,0,1,.64.65V252.1a2.53,2.53,0,0,1-.39,1.36l-7,11a2.62,2.62,0,0,0-.39,1.36Z" transform="translate(-227.36 -9.46)" style="fill:#31e7ff"/><path d="M418.63,274.47a2.56,2.56,0,0,1-1.27,2.2h0V264.16a2.53,2.53,0,0,1,.39-1.36l6.95-11a2.62,2.62,0,0,0,.39-1.36V228.32a.65.65,0,0,1,.64-.65h0a.65.65,0,0,1,.65.65v22.53a2.51,2.51,0,0,1-.4,1.36l-6.94,11a2.48,2.48,0,0,0-.4,1.35Z" transform="translate(-227.36 -9.46)" style="fill:#31e7ff"/><path d="M426,230.38h0c-1.09.64-2,0-2-1.48v-.12a4.76,4.76,0,0,1,1.93-3.81h0c1.09-.64,2,0,2,1.48v.12A4.76,4.76,0,0,1,426,230.38Z" transform="translate(-227.36 -9.46)" style="fill:#31e7ff"/><path d="M429.92,241.29h0c-1.09.65-2,0-2-1.47v-.13a4.74,4.74,0,0,1,1.93-3.8h0c1.09-.64,2,0,2,1.47v.13A4.73,4.73,0,0,1,429.92,241.29Z" transform="translate(-227.36 -9.46)" style="fill:#31e7ff"/><path d="M426,233.35h0c-2.28,1.36-4.16,0-4.19-3.09V230c0-3.06,1.79-6.64,4.07-8h0c2.28-1.36,4.16,0,4.19,3.09v.27C430.12,228.42,428.3,232,426,233.35Z" transform="translate(-227.36 -9.46)" style="fill:#f8ffff;opacity:0.30000000000000004"/><path d="M430,244.27h0c-2.28,1.35-4.16,0-4.19-3.09v-.27c0-3.06,1.78-6.64,4.06-8h0c2.28-1.35,4.16,0,4.19,3.1v.27C434.05,239.34,432.23,242.92,430,244.27Z" transform="translate(-227.36 -9.46)" style="fill:#f8ffff;opacity:0.30000000000000004"/></g></g><path d="M466.89,317a5.28,5.28,0,0,1-2.73,5l-80.65,46.06a14.56,14.56,0,0,1-13.83.44l-79.55-46.08c-2.41-1.44-3.6-3.26-3.8-5V340c-.65,2.3.38,5,3.65,6.91L369.54,393a14.54,14.54,0,0,0,13.82-.43L464,346.5a5.28,5.28,0,0,0,2.73-5h0l.19-24.49Z" transform="translate(-227.36 -9.46)" style="mix-blend-mode:overlay;fill:url(#linear-gradient-28)"/></g><g id="_5" data-name="5"><g style="opacity:0.7000000000000001"><g style="mix-blend-mode:overlay"><polygon points="50.32 228.29 25.16 242.96 0 228.29 25.16 213.62 50.32 228.29" style="fill:url(#linear-gradient-29)"/><polygon points="50.32 223.57 25.16 238.24 0 223.57 25.16 208.91 50.32 223.57" style="fill:url(#linear-gradient-30)"/><polygon points="50.32 223.57 25.16 176 25.16 238.24 50.32 223.57" style="opacity:0.7000000000000001;fill:url(#linear-gradient-31)"/><polygon points="0 223.57 25.16 176 25.16 238.24 0 223.57" style="opacity:0.7000000000000001;fill:url(#linear-gradient-32)"/><polygon points="50.32 228.29 25.16 266.93 25.16 242.96 50.32 228.29" style="opacity:0.7000000000000001;fill:url(#linear-gradient-33)"/><polygon points="0 228.29 25.16 266.93 25.16 242.96 0 228.29" style="opacity:0.7000000000000001;fill:url(#linear-gradient-34)"/></g><g style="mix-blend-mode:overlay"><polygon points="50.32 228.21 25.16 242.87 0 228.21 25.16 213.54 50.32 228.21" style="fill:url(#linear-gradient-35)"/><polygon points="50.32 223.49 25.16 238.16 0 223.49 25.16 208.82 50.32 223.49" style="fill:url(#linear-gradient-36)"/><polygon points="50.32 223.49 25.16 175.92 25.16 238.16 50.32 223.49" style="opacity:0.7000000000000001;fill:url(#linear-gradient-37)"/><polygon points="0 223.49 25.16 175.92 25.16 238.16 0 223.49" style="opacity:0.7000000000000001;fill:url(#linear-gradient-38)"/><polygon points="50.32 228.21 25.16 266.85 25.16 242.87 50.32 228.21" style="opacity:0.7000000000000001;fill:url(#linear-gradient-39)"/><polygon points="0 228.21 25.16 266.85 25.16 242.87 0 228.21" style="opacity:0.7000000000000001;fill:url(#linear-gradient-40)"/></g></g><polygon points="63.08 237.8 37.92 252.47 12.76 237.8 37.92 223.14 63.08 237.8" style="fill:url(#linear-gradient-41)"/><polygon points="63.08 233.08 37.92 247.75 12.76 233.08 37.92 218.42 63.08 233.08" style="fill:url(#linear-gradient-42)"/><polygon points="63.08 233.08 37.92 185.51 37.92 247.75 63.08 233.08" style="opacity:0.7000000000000001;fill:url(#linear-gradient-43)"/><polygon points="12.76 233.08 37.92 185.51 37.92 247.75 12.76 233.08" style="opacity:0.7000000000000001;fill:url(#linear-gradient-44)"/><polygon points="63.08 237.8 37.92 276.44 37.92 252.47 63.08 237.8" style="opacity:0.7000000000000001;fill:url(#linear-gradient-45)"/><polygon points="12.76 237.8 37.92 276.44 37.92 252.47 12.76 237.8" style="opacity:0.7000000000000001;fill:url(#linear-gradient-46)"/><polygon points="63.08 237.72 37.92 252.39 12.76 237.72 37.92 223.05 63.08 237.72" style="fill:url(#linear-gradient-47)"/><polygon points="63.08 233 37.92 247.67 12.76 233 37.92 218.34 63.08 233" style="fill:url(#linear-gradient-48)"/><polygon points="63.08 233 37.92 185.43 37.92 247.67 63.08 233" style="opacity:0.7000000000000001;fill:url(#linear-gradient-49)"/><polygon points="12.76 233 37.92 185.43 37.92 247.67 12.76 233" style="opacity:0.7000000000000001;fill:url(#linear-gradient-50)"/><polygon points="63.08 237.72 37.92 276.36 37.92 252.39 63.08 237.72" style="opacity:0.7000000000000001;fill:url(#linear-gradient-51)"/><polygon points="12.76 237.72 37.92 276.36 37.92 252.39 12.76 237.72" style="opacity:0.7000000000000001;fill:url(#linear-gradient-52)"/></g><g id="_4-2" data-name="4"><g style="opacity:0.7000000000000001"><g style="mix-blend-mode:overlay"><polygon points="277.99 289.47 257.38 301.48 236.77 289.47 257.38 277.45 277.99 289.47" style="fill:url(#linear-gradient-53)"/><polygon points="277.99 285.6 257.38 297.62 236.77 285.6 257.38 273.59 277.99 285.6" style="fill:url(#linear-gradient-54)"/><polygon points="277.99 285.6 257.38 246.64 257.38 297.62 277.99 285.6" style="opacity:0.7000000000000001;fill:url(#linear-gradient-55)"/><polygon points="236.77 285.6 257.38 246.64 257.38 297.62 236.77 285.6" style="opacity:0.7000000000000001;fill:url(#linear-gradient-56)"/><polygon points="277.99 289.47 257.38 321.12 257.38 301.48 277.99 289.47" style="opacity:0.7000000000000001;fill:url(#linear-gradient-57)"/><polygon points="236.77 289.47 257.38 321.12 257.38 301.48 236.77 289.47" style="opacity:0.7000000000000001;fill:url(#linear-gradient-58)"/></g><g style="mix-blend-mode:overlay"><polygon points="277.99 289.67 257.38 301.68 236.77 289.67 257.38 277.66 277.99 289.67" style="fill:url(#linear-gradient-59)"/><polygon points="277.99 285.81 257.38 297.82 236.77 285.81 257.38 273.79 277.99 285.81" style="fill:url(#linear-gradient-60)"/><polygon points="277.99 285.81 257.38 246.84 257.38 297.82 277.99 285.81" style="opacity:0.7000000000000001;fill:url(#linear-gradient-61)"/><polygon points="236.77 285.81 257.38 246.84 257.38 297.82 236.77 285.81" style="opacity:0.7000000000000001;fill:url(#linear-gradient-62)"/><polygon points="277.99 289.67 257.38 321.32 257.38 301.68 277.99 289.67" style="opacity:0.7000000000000001;fill:url(#linear-gradient-63)"/><polygon points="236.77 289.67 257.38 321.32 257.38 301.68 236.77 289.67" style="opacity:0.7000000000000001;fill:url(#linear-gradient-64)"/></g></g><polygon points="266.3 297.05 245.69 309.07 225.09 297.05 245.69 285.04 266.3 297.05" style="fill:url(#linear-gradient-65)"/><polygon points="266.3 293.19 245.69 305.2 225.09 293.19 245.69 281.18 266.3 293.19" style="fill:url(#linear-gradient-66)"/><polygon points="266.3 293.19 245.69 254.22 245.69 305.2 266.3 293.19" style="opacity:0.7000000000000001;fill:url(#linear-gradient-67)"/><polygon points="225.09 293.19 245.69 254.22 245.69 305.2 225.09 293.19" style="opacity:0.7000000000000001;fill:url(#linear-gradient-68)"/><polygon points="266.3 297.05 245.69 328.7 245.69 309.07 266.3 297.05" style="opacity:0.7000000000000001;fill:url(#linear-gradient-69)"/><polygon points="225.09 297.05 245.69 328.7 245.69 309.07 225.09 297.05" style="opacity:0.7000000000000001;fill:url(#linear-gradient-70)"/><polygon points="266.3 297.26 245.69 309.27 225.09 297.26 245.69 285.24 266.3 297.26" style="fill:url(#linear-gradient-71)"/><polygon points="266.3 293.39 245.69 305.4 225.09 293.39 245.69 281.38 266.3 293.39" style="fill:url(#linear-gradient-72)"/><polygon points="266.3 293.39 245.69 254.43 245.69 305.4 266.3 293.39" style="opacity:0.7000000000000001;fill:url(#linear-gradient-73)"/><polygon points="225.09 293.39 245.69 254.43 245.69 305.4 225.09 293.39" style="opacity:0.7000000000000001;fill:url(#linear-gradient-74)"/><polygon points="266.3 297.26 245.69 328.91 245.69 309.27 266.3 297.26" style="opacity:0.7000000000000001;fill:url(#linear-gradient-75)"/><polygon points="225.09 297.26 245.69 328.91 245.69 309.27 225.09 297.26" style="opacity:0.7000000000000001;fill:url(#linear-gradient-76)"/></g><g id="_3" data-name="3"><polygon points="184.67 135.59 149.32 156.2 113.96 135.59 149.32 114.98 184.67 135.59" style="fill:url(#linear-gradient-77)"/><polygon points="184.67 128.96 149.32 149.57 113.96 128.96 149.32 108.35 184.67 128.96" style="fill:url(#linear-gradient-78)"/><polygon points="184.67 128.96 149.32 62.12 149.32 149.57 184.67 128.96" style="opacity:0.7000000000000001;fill:url(#linear-gradient-79)"/><polygon points="113.96 128.96 149.32 62.12 149.32 149.57 113.96 128.96" style="opacity:0.7000000000000001;fill:url(#linear-gradient-80)"/><polygon points="184.67 135.59 149.32 189.89 149.32 156.2 184.67 135.59" style="opacity:0.7000000000000001;fill:url(#linear-gradient-81)"/><polygon points="113.96 135.59 149.32 189.89 149.32 156.2 113.96 135.59" style="opacity:0.7000000000000001;fill:url(#linear-gradient-82)"/><g style="mix-blend-mode:overlay"><polygon points="184.67 135.54 149.32 156.15 113.96 135.54 149.32 114.93 184.67 135.54" style="fill:url(#linear-gradient-83)"/><polygon points="184.67 128.91 149.32 149.52 113.96 128.91 149.32 108.3 184.67 128.91" style="fill:url(#linear-gradient-84)"/><polygon points="184.67 128.91 149.32 62.06 149.32 149.52 184.67 128.91" style="opacity:0.7000000000000001;fill:url(#linear-gradient-85)"/><polygon points="113.96 128.91 149.32 62.06 149.32 149.52 113.96 128.91" style="opacity:0.7000000000000001;fill:url(#linear-gradient-86)"/><polygon points="184.67 135.54 149.32 189.84 149.32 156.15 184.67 135.54" style="opacity:0.7000000000000001;fill:url(#linear-gradient-87)"/><polygon points="113.96 135.54 149.32 189.84 149.32 156.15 113.96 135.54" style="opacity:0.7000000000000001;fill:url(#linear-gradient-88)"/></g></g><g id="_2" data-name="2"><path d="M289.43,86.84l81.25-46.31a14.77,14.77,0,0,1,14.06-.43L464.3,86.24c3.66,2.67,4.36,8,.32,10.35L384,142.65a14.54,14.54,0,0,1-13.82.44L290.6,97C285.52,94,285.81,89.26,289.43,86.84Z" transform="translate(-227.36 -9.46)" style="opacity:0.7000000000000001;mix-blend-mode:lighten;fill:url(#linear-gradient-89)"/><g style="mix-blend-mode:lighten"><path d="M377.47,126.75a15,15,0,0,1-6.74-1.6L291.15,79.06c-2.58-1.54-4-3.63-4.1-5.9A6,6,0,0,1,290,68l0,0L371.24,21.7a15.23,15.23,0,0,1,14.53-.45l79.59,46.17a7.67,7.67,0,0,1,3.31,6.44,5.79,5.79,0,0,1-3,4.78L385,124.7A15,15,0,0,1,377.47,126.75Zm-87-57.87a5,5,0,0,0-2.44,4.26c.05,1.9,1.33,3.69,3.6,5l79.55,46.07a14,14,0,0,0,13.32-.44l80.65-46.06a4.76,4.76,0,0,0,2.48-4,6.61,6.61,0,0,0-2.85-5.55L385.29,22.14a14.23,14.23,0,0,0-13.55.43Z" transform="translate(-227.36 -9.46)" style="fill:url(#linear-gradient-90)"/></g><g style="mix-blend-mode:lighten"><path d="M377.47,116.58a15.13,15.13,0,0,1-6.74-1.59L291.15,68.9c-2.58-1.54-4-3.64-4.1-5.9a6,6,0,0,1,2.9-5.13l0,0,81.25-46.31a15.23,15.23,0,0,1,14.53-.45l79.59,46.16a7.7,7.7,0,0,1,3.31,6.45,5.79,5.79,0,0,1-3,4.78L385,114.54A15,15,0,0,1,377.47,116.58Zm-87-57.86A5,5,0,0,0,288.06,63c.05,1.9,1.33,3.69,3.6,5.05l79.55,46.07a14,14,0,0,0,13.32-.44L465.18,67.6a4.77,4.77,0,0,0,2.48-3.95,6.61,6.61,0,0,0-2.85-5.55L385.29,12a14.23,14.23,0,0,0-13.55.43Z" transform="translate(-227.36 -9.46)" style="fill:url(#linear-gradient-91)"/></g></g><g id="_4-3" data-name="4"><polygon points="199.85 310.16 190 315.9 180.14 310.16 190 304.41 199.85 310.16" style="fill:url(#linear-gradient-92)"/><polygon points="199.85 308.31 190 314.05 180.14 308.31 190 302.56 199.85 308.31" style="fill:url(#linear-gradient-93)"/><polygon points="199.85 308.31 190 289.67 190 314.05 199.85 308.31" style="opacity:0.7000000000000001;fill:url(#linear-gradient-94)"/><polygon points="180.14 308.31 190 289.67 190 314.05 180.14 308.31" style="opacity:0.7000000000000001;fill:url(#linear-gradient-95)"/><polygon points="199.85 310.16 190 325.29 190 315.9 199.85 310.16" style="opacity:0.7000000000000001;fill:url(#linear-gradient-96)"/><polygon points="180.14 310.16 190 325.29 190 315.9 180.14 310.16" style="opacity:0.7000000000000001;fill:url(#linear-gradient-97)"/><polygon points="199.85 310.25 190 316 180.14 310.25 190 304.51 199.85 310.25" style="fill:url(#linear-gradient-98)"/><polygon points="199.85 308.4 190 314.15 180.14 308.4 190 302.66 199.85 308.4" style="fill:url(#linear-gradient-99)"/><polygon points="199.85 308.4 190 289.77 190 314.15 199.85 308.4" style="opacity:0.7000000000000001;fill:url(#linear-gradient-100)"/><polygon points="180.14 308.4 190 289.77 190 314.15 180.14 308.4" style="opacity:0.7000000000000001;fill:url(#linear-gradient-101)"/><polygon points="199.85 310.25 190 325.39 190 316 199.85 310.25" style="opacity:0.7000000000000001;fill:url(#linear-gradient-102)"/><polygon points="180.14 310.25 190 325.39 190 316 180.14 310.25" style="opacity:0.7000000000000001;fill:url(#linear-gradient-103)"/></g></g></g></svg>